<?xml version="1.0" encoding="UTF-8"?>
<svg version="1.1" xmlns="http://www.w3.org/2000/svg" width="920" height="920">
<path d="M0 0 C1.69859377 -0.00015552 3.39718788 -0.00165329 5.09577942 -0.00440979 C8.62806189 -0.00578241 12.15993268 0.00657493 15.69213867 0.02954102 C20.18707704 0.05798806 24.68133666 0.05515511 29.1763258 0.0424509 C32.67423664 0.03545145 36.17199437 0.04333028 39.66988564 0.05570793 C41.32624026 0.06017648 42.98261159 0.06060018 44.63896751 0.05664253 C57.12973054 0.04075254 68.6071958 1.23643495 79.89453125 6.99609375 C80.56605225 7.33721191 81.23757324 7.67833008 81.92944336 8.02978516 C97.9500252 16.59871226 108.28530472 31.46533448 113.89453125 48.49609375 C114.69739688 51.70706506 115.2844749 54.93721486 115.83984375 58.19921875 C116.00474808 59.13697144 116.1696524 60.07472412 116.33955383 61.04089355 C118.56236145 73.97869144 120.30115925 86.99181872 122.08203125 99.99609375 C122.61443793 103.85248398 123.14814945 107.70869099 123.68244934 111.56481934 C124.01106067 113.93970857 124.33835068 116.31478113 124.66410828 118.69006348 C124.81128799 119.75978394 124.95846771 120.82950439 125.11010742 121.93164062 C125.23794113 122.86455933 125.36577484 123.79747803 125.4974823 124.75866699 C125.78519568 126.74228713 126.1023575 128.72170847 126.43745422 130.69787598 C127.0356893 134.36026094 126.95842306 137.79036906 126.89453125 141.49609375 C127.8985498 141.7437146 127.8985498 141.7437146 128.92285156 141.99633789 C135.78428438 143.76674073 142.16401278 146.08349789 148.64453125 148.93359375 C149.98451172 149.5069043 149.98451172 149.5069043 151.3515625 150.09179688 C155.30889879 151.80819678 159.06868221 153.5456966 162.72265625 155.84375 C165.69057434 157.70736355 165.69057434 157.70736355 168.546875 157.46484375 C171.30740237 156.3257243 173.1835544 154.93489634 175.45703125 152.99609375 C179.16269917 149.91627197 182.90649473 146.93941652 186.76953125 144.05859375 C187.78917969 143.29804688 188.80882812 142.5375 189.859375 141.75390625 C190.86097656 141.00882813 191.86257813 140.26375 192.89453125 139.49609375 C198.54181393 135.28317169 204.17461223 131.05530171 209.7578125 126.7578125 C241.33389346 102.47388083 241.33389346 102.47388083 254.89453125 98.49609375 C255.69632813 98.25375 256.498125 98.01140625 257.32421875 97.76171875 C275.14309507 93.32199872 296.02620883 97.06387049 311.74809265 106.14419556 C319.34758894 111.10888073 325.73863982 116.76271756 332.1015625 123.20703125 C333.12073695 124.22605008 334.14058338 125.2443972 335.16105652 126.26211548 C337.27906618 128.37875415 339.39005471 130.5020699 341.49584961 132.63085938 C344.17100147 135.33444645 346.86149752 138.0221218 349.55724049 140.70516014 C351.65893266 142.79984012 353.75310212 144.90191566 355.8450985 147.00627518 C356.83365563 147.99928934 357.82422536 148.99030483 358.81699562 149.9791069 C373.7273691 164.85771872 383.02598378 180.82817224 383.33203125 202.30859375 C383.15028924 225.58385064 371.65375434 242.62337021 357.89453125 260.49609375 C356.95681067 261.72248762 356.01929023 262.94903457 355.08203125 264.17578125 C353.45416294 266.30057779 351.81880708 268.41895959 350.1796875 270.53515625 C346.79273719 274.92371751 343.47604748 279.36390672 340.15869141 283.80517578 C337.67900408 287.12196111 335.19233167 290.43351367 332.70703125 293.74609375 C330.53327663 296.64419423 330.53327663 296.64419423 328.37353516 299.55273438 C327.33855753 300.91265876 326.26402533 302.24296523 325.16162109 303.54882812 C321.83384174 307.47192346 321.83384174 307.47192346 320.72265625 312.3359375 C322.46240983 317.02747299 324.50088535 321.53897039 326.64453125 326.05859375 C329.48928086 332.09304015 332.18483519 338.12550876 334.55957031 344.36303711 C334.9998053 345.51662216 335.44004028 346.67020721 335.89361572 347.85874939 C336.22391785 348.72907303 336.55421997 349.59939667 336.89453125 350.49609375 C337.98066208 350.64785568 339.06679291 350.79961761 340.18583679 350.95597839 C350.4707035 352.39512767 360.75313109 353.85070827 371.03345013 355.32200146 C376.3174967 356.07771273 381.60220883 356.8278096 386.88891602 357.56469727 C392.00024858 358.27735772 397.10920721 359.00525922 402.21692848 359.74334145 C404.15638538 360.02094645 406.0966099 360.29324707 408.03760338 360.55989647 C418.96085374 362.06436395 428.81355725 363.83210535 438.89453125 368.49609375 C439.8611821 368.93781418 440.82783295 369.37953461 441.82377625 369.8346405 C457.55563966 377.32468342 468.99991451 391.87296498 475.140625 407.921875 C477.98474256 417.63313651 478.28765725 426.87340791 478.4140625 436.91015625 C478.44045845 438.61014345 478.46721369 440.31012511 478.49430847 442.01010132 C478.54853896 445.56543369 478.59535125 449.12077375 478.63745117 452.67626953 C478.69193393 457.19145245 478.76950077 461.70590151 478.85339832 466.22062111 C478.91518752 469.73135342 478.96201808 473.24217529 479.00485802 476.75318527 C479.02731451 478.41551704 479.05475299 480.07779046 479.08765602 481.73994827 C479.49344801 503.05530676 475.34765723 521.50417372 460.39453125 537.55859375 C452.50839375 545.1274053 443.47828737 550.03423467 433.05493164 553.0456543 C432.32150323 553.25852176 431.58807482 553.47138922 430.8324213 553.69070721 C422.62382412 555.97919934 414.31873221 557.22463676 405.890625 558.390625 C404.23001443 558.62917138 402.56954018 558.86866835 400.90919495 559.10905457 C397.46744426 559.6047403 394.02467729 560.09223847 390.58081055 560.57299805 C386.18477352 561.18690385 381.79124073 561.81695487 377.39828396 562.4524889 C373.98532826 562.94528258 370.57153635 563.43205454 367.15742683 563.91678429 C365.53665116 564.14715226 363.91605507 564.37878779 362.29565239 564.61176491 C360.03437144 564.935465 357.77216084 565.25162769 355.50952148 565.56567383 C353.58788429 565.83617302 353.58788429 565.83617302 351.62742615 566.11213684 C347.66558204 566.51964293 343.87336558 566.56174926 339.89453125 566.49609375 C339.78238281 567.058125 339.67023437 567.62015625 339.5546875 568.19921875 C336.98997249 579.12859253 332.06036652 589.87132229 326.68310547 599.71337891 C324.45967633 603.72992537 324.45967633 603.72992537 323.92578125 608.2109375 C325.07684809 610.92615565 326.47951944 612.81301443 328.39453125 615.05859375 C333.10295964 620.72381508 337.49713386 626.58779572 341.89453125 632.49609375 C343.39369969 634.49671715 344.89369613 636.49672036 346.39453125 638.49609375 C355.01953125 649.99609375 355.01953125 649.99609375 357.234375 652.96484375 C359.32542154 655.75620528 361.45311617 658.5177936 363.5859375 661.27734375 C377.89651032 679.88865829 387.09458237 697.45849817 384.89453125 721.49609375 C382.0991691 742.00975136 372.82006946 757.23045545 358.32421875 771.6328125 C357.3149372 772.64735277 356.30616976 773.66240471 355.29788208 774.67793274 C353.19831083 776.78781544 351.09158749 778.8902061 348.97949219 780.98754883 C346.3086305 783.64125251 343.65862854 786.31473348 341.0139904 788.99454021 C338.9396592 791.09111076 336.85344738 793.1755523 334.7638588 795.25690651 C333.78351474 796.23644518 332.80685498 797.21968912 331.83443832 798.20709801 C322.2627325 807.90365855 311.1040633 816.48447412 297.89453125 820.49609375 C296.80398438 820.83060547 296.80398438 820.83060547 295.69140625 821.171875 C277.6297823 825.68728099 257.74179671 822.12046707 241.85351562 812.73779297 C234.55642862 808.11254565 227.73177231 802.76508973 220.89453125 797.49609375 C220.29785645 797.03799316 219.70118164 796.57989258 219.08642578 796.10791016 C216.49663366 794.11869464 213.91255656 792.12231746 211.33203125 790.12109375 C206.26419696 786.22275968 201.08705431 782.47005923 195.9309082 778.68994141 C190.10171374 774.40834668 184.3524941 770.03863879 178.65625 765.58203125 C177.28919922 764.54949219 177.28919922 764.54949219 175.89453125 763.49609375 C174.94191406 762.68011719 173.98929688 761.86414063 173.0078125 761.0234375 C169.89787275 759.06209419 169.89787275 759.06209419 166.36328125 760.5390625 C165.0238975 761.22255446 163.70148074 761.93995867 162.39453125 762.68359375 C157.45183522 765.49057849 153.02705852 767.62133322 147.3894043 768.59448242 C140.95328817 769.92172313 135.50409599 771.61292502 130.89453125 776.49609375 C125.96817766 787.4236641 125.51570197 800.13635367 124.45959473 811.934021 C124.04175657 816.37948376 123.5152597 820.81175361 122.99414062 825.24609375 C122.40949057 830.25683923 121.8343848 835.26634084 121.34724426 840.28762817 C118.83108856 866.01478404 113.06936314 889.42830574 92.3125 906.63671875 C89.8975742 908.38611382 87.45753202 909.97303259 84.89453125 911.49609375 C84.12882813 911.955 83.363125 912.41390625 82.57421875 912.88671875 C69.5625603 920.0152181 56.26756007 921.10204921 41.7890625 920.9921875 C40.09046873 920.99234302 38.39187462 920.99384079 36.69328308 920.99659729 C33.16100061 920.99796991 29.62912982 920.98561257 26.09692383 920.96264648 C21.60198546 920.93419944 17.10772584 920.93703239 12.6127367 920.9497366 C9.11482586 920.95673605 5.61706813 920.94885722 2.11917686 920.93647957 C0.46282224 920.93201102 -1.19354909 920.93158732 -2.84990501 920.93554497 C-23.22039088 920.96145907 -40.1635088 915.84415879 -55.1484375 901.546875 C-67.14941144 888.98879589 -72.7829073 873.40631617 -75.10546875 856.4609375 C-75.26789063 855.34336563 -75.4303125 854.22579376 -75.59765625 853.07435608 C-76.11062247 849.52883163 -76.60845272 845.98138543 -77.10546875 842.43359375 C-77.43777349 840.11508672 -77.7711005 837.79672596 -78.10546875 835.47851562 C-78.77368425 830.84061321 -79.43378367 826.20164748 -80.08984375 821.56201172 C-80.78057386 816.70751652 -81.50226312 811.85884666 -82.24609375 807.01220703 C-82.43171875 805.79465225 -82.61734375 804.57709747 -82.80859375 803.32264709 C-83.16303509 801.00713838 -83.52212124 798.69233398 -83.88671875 796.37840271 C-84.75629483 790.67490514 -85.30058651 785.26556902 -85.10546875 779.49609375 C-85.6675 779.38394531 -86.22953125 779.27179687 -86.80859375 779.15625 C-97.73796753 776.59153499 -108.48069729 771.66192902 -118.32275391 766.28466797 C-122.33930037 764.06123883 -122.33930037 764.06123883 -126.8203125 763.52734375 C-129.53553065 764.67841059 -131.42238943 766.08108194 -133.66796875 767.99609375 C-138.79003912 772.25065589 -144.06011959 776.25160509 -149.40136719 780.22607422 C-152.55860485 782.57907569 -155.70616231 784.94499449 -158.85546875 787.30859375 C-160.22393944 788.33466061 -161.5924292 789.36070205 -162.9609375 790.38671875 C-166.36507826 792.93962412 -169.76594076 795.496859 -173.16601562 798.05517578 C-175.15982066 799.55247473 -177.1577527 801.04412821 -179.15625 802.53515625 C-181.79715159 804.50687305 -184.41601789 806.50378779 -187.0234375 808.51953125 C-194.33465842 814.1179804 -201.21807799 818.69514746 -210.10546875 821.49609375 C-211.59046875 821.96982422 -211.59046875 821.96982422 -213.10546875 822.453125 C-232.9454131 827.88430977 -252.92511337 824.04585725 -270.62774658 814.07551575 C-278.09526082 809.53917083 -284.09852096 804.07693812 -290.21484375 797.8828125 C-291.2354474 796.8623644 -292.25672252 795.84258748 -293.27862549 794.82344055 C-295.40261211 792.70082683 -297.51956109 790.57151776 -299.63134766 788.43676758 C-302.31439324 785.72532298 -305.01274112 783.02974706 -307.71636581 780.33883953 C-309.82234977 778.23986901 -311.92080893 776.13350055 -314.01709747 774.02485085 C-315.00844501 773.0290449 -316.00180714 772.03523966 -316.99736786 771.04364586 C-331.92045558 756.15223771 -341.23661985 740.18517117 -341.54296875 718.68359375 C-341.36127548 695.41457862 -329.87170816 678.35966733 -316.10546875 660.49609375 C-315.41831787 659.60108154 -315.41831787 659.60108154 -314.71728516 658.68798828 C-312.72806964 656.09819616 -310.73169246 653.51411906 -308.73046875 650.93359375 C-304.83213468 645.86575946 -301.07943423 640.68861681 -297.29931641 635.5324707 C-293.01772168 629.70327624 -288.64801379 623.9540566 -284.19140625 618.2578125 C-283.15886719 616.89076172 -283.15886719 616.89076172 -282.10546875 615.49609375 C-280.86410156 614.10197266 -280.86410156 614.10197266 -279.59765625 612.6796875 C-277.84655448 609.77201929 -277.84655448 609.77201929 -278.50732422 607.56420898 C-279.49317317 605.24318817 -280.62801378 603.07383772 -281.85546875 600.87109375 C-282.65049413 599.38345304 -283.43641707 597.89092429 -284.21484375 596.39453125 C-284.91178345 595.11715088 -284.91178345 595.11715088 -285.62280273 593.81396484 C-286.88024631 591.00009062 -287.67727123 588.50325235 -288.44946289 585.54150391 C-290.87848312 576.11799422 -290.87848312 576.11799422 -297.19439697 569.20733643 C-303.5724702 566.85719422 -310.31909723 566.58443278 -317.04296875 566.12109375 C-319.18909761 565.90193258 -321.33422946 565.67279628 -323.47827148 565.43408203 C-327.86505331 564.9550681 -332.25261572 564.52114283 -336.64746094 564.12304688 C-345.49631984 563.29818969 -354.27711259 562.05354341 -363.06619263 560.74969482 C-365.5892473 560.38254901 -368.11463673 560.04295091 -370.64233398 559.70947266 C-392.26087472 556.75535549 -411.03969149 549.08109924 -425.23828125 531.91796875 C-426.99285917 529.50257577 -428.58068649 527.06199079 -430.10546875 524.49609375 C-430.564375 523.73039063 -431.02328125 522.9646875 -431.49609375 522.17578125 C-438.59751858 509.21354196 -439.71952893 495.92411296 -439.63671875 481.49609375 C-439.6394238 479.80468525 -439.64331455 478.11327827 -439.64831543 476.421875 C-439.65416301 472.90219096 -439.64580285 469.38291703 -439.62695312 465.86328125 C-439.60416622 461.39541966 -439.61731513 456.92851984 -439.64124298 452.46069336 C-439.65583073 448.97551479 -439.65103626 445.49055702 -439.64073181 442.00537109 C-439.63810017 440.35986206 -439.6412057 438.71433169 -439.65065002 437.06884766 C-439.73791806 417.60116894 -435.34588395 400.41214541 -421.64404297 385.74902344 C-411.26446468 375.31711114 -397.69253622 368.42022442 -383.23461914 366.01831055 C-382.12169668 365.82797383 -382.12169668 365.82797383 -380.98629093 365.63379192 C-373.28947697 364.33073455 -365.57385393 363.15625454 -357.8515625 362.015625 C-356.37044204 361.79574904 -354.88932746 361.57583339 -353.40821838 361.35588074 C-350.34230781 360.90127002 -347.27610624 360.4486831 -344.2097168 359.99731445 C-340.29895863 359.42125884 -336.38937601 358.83759007 -332.48001003 358.25217152 C-329.43755657 357.79785164 -326.39434756 357.34876198 -323.35090828 356.90109825 C-321.90866301 356.68809437 -320.46669225 356.47322219 -319.02502251 356.25635719 C-312.00903139 355.20287366 -305.20798715 354.19394335 -298.10546875 354.49609375 C-297.94038818 353.82674805 -297.77530762 353.15740234 -297.60522461 352.46777344 C-295.83482177 345.60634062 -293.51806461 339.22661222 -290.66796875 332.74609375 C-290.0946582 331.40611328 -290.0946582 331.40611328 -289.50976562 330.0390625 C-287.78855678 326.0706387 -286.03748913 322.28508432 -283.7578125 318.60546875 C-281.87167505 315.78150632 -281.87167505 315.78150632 -282.3671875 313.4987793 C-283.62146267 310.096392 -285.96798713 307.39969271 -288.16796875 304.55859375 C-288.69672607 303.86475586 -289.2254834 303.17091797 -289.77026367 302.45605469 C-290.92804697 300.93814257 -292.08874533 299.42245063 -293.25195312 297.90869141 C-295.81403444 294.57380105 -298.36138926 291.22776647 -300.90966797 287.88232422 C-302.25690377 286.11385204 -303.60489499 284.3459551 -304.95361328 282.57861328 C-310.3179035 275.545887 -315.64679154 268.48724986 -320.93481445 261.39697266 C-323.52274721 257.92768019 -326.11108726 254.46466491 -328.796875 251.0703125 C-340.77058137 235.77395326 -347.72777877 218.14160133 -346.10546875 198.49609375 C-344.63995336 189.84503372 -342.26695343 181.24557229 -338.10546875 173.49609375 C-337.70972656 172.72394531 -337.31398438 171.95179688 -336.90625 171.15625 C-328.96204336 156.74741675 -315.00751371 145.12427856 -303.52758789 133.56811523 C-301.70447639 131.72840188 -299.88675266 129.88333369 -298.07446289 128.03295898 C-273.67009435 103.12131482 -273.67009435 103.12131482 -258.04296875 98.49609375 C-256.83511719 98.12484375 -255.62726563 97.75359375 -254.3828125 97.37109375 C-237.63731817 92.90030623 -219.37668361 95.26190142 -204.10546875 103.49609375 C-203.37972656 103.88023438 -202.65398437 104.264375 -201.90625 104.66015625 C-194.24030391 108.99363321 -187.35908602 114.44070282 -180.37402344 119.77050781 C-176.3843927 122.80523769 -172.36805816 125.80433011 -168.35546875 128.80859375 C-166.6665693 130.07539104 -164.97776821 131.34231946 -163.2890625 132.609375 C-159.76205479 135.25479826 -156.23319017 137.89772068 -152.703125 140.5390625 C-151.81786133 141.20188232 -150.93259766 141.86470215 -150.02050781 142.54760742 C-148.34458082 143.80235163 -146.66818517 145.05647023 -144.99121094 146.30981445 C-144.22067383 146.88691162 -143.45013672 147.46400879 -142.65625 148.05859375 C-141.53017334 148.89390625 -141.53017334 148.89390625 -140.38134766 149.74609375 C-138.78612994 150.97271042 -137.22813336 152.24855358 -135.70068359 153.55859375 C-134.92031738 154.21859375 -134.13995117 154.87859375 -133.3359375 155.55859375 C-132.64266357 156.16832031 -131.94938965 156.77804688 -131.23510742 157.40625 C-129.11930672 158.79118683 -129.11930672 158.79118683 -126.69580078 157.83569336 C-125.84099121 157.39362549 -124.98618164 156.95155762 -124.10546875 156.49609375 C-123.20272217 156.10365479 -122.29997559 155.71121582 -121.36987305 155.30688477 C-120.39961182 154.87561279 -119.42935059 154.44434082 -118.4296875 154 C-116.81610352 153.28553711 -116.81610352 153.28553711 -115.16992188 152.55664062 C-112.92985927 151.56292864 -110.69027058 150.56814763 -108.45117188 149.57226562 C-92.45577661 142.49609375 -92.45577661 142.49609375 -88.10546875 142.49609375 C-88.05856903 141.6004924 -88.01166931 140.70489105 -87.96334839 139.78215027 C-87.40303431 130.23285691 -86.31365585 120.82308382 -84.92578125 111.359375 C-84.70987475 109.86261023 -84.49429556 108.36579822 -84.27902222 106.86894226 C-83.83054854 103.75997136 -83.37797001 100.6516345 -82.92236328 97.54370117 C-82.34386378 93.59493738 -81.77615772 89.64470949 -81.21156502 85.69393635 C-80.76988782 82.6123295 -80.3222804 79.53160535 -79.87298203 76.4511013 C-79.66147867 74.99596811 -79.45177635 73.54057177 -79.24405289 72.08489418 C-77.58082354 60.46423271 -75.91032927 48.87786401 -70.41796875 38.37109375 C-70.06694092 37.69224121 -69.71591309 37.01338867 -69.35424805 36.31396484 C-60.86097142 20.35989035 -46.91444813 9.23939126 -29.8625946 3.38218689 C-19.78761071 0.45547556 -10.4491013 -0.07928697 0 0 Z M-17.10546875 61.49609375 C-19.27392954 64.74878494 -19.59785669 66.53255886 -20.1550293 70.35327148 C-20.3389473 71.58900406 -20.5228653 72.82473663 -20.71235657 74.09791565 C-20.90995927 75.47931686 -21.10739691 76.86074168 -21.3046875 78.2421875 C-21.51896603 79.70317046 -21.73388425 81.16405972 -21.9493866 82.62486267 C-22.54811026 86.69851444 -23.13671484 90.77357496 -23.72350311 94.84896088 C-24.24967569 98.49548977 -24.7811865 102.14123401 -25.31253242 105.7870121 C-27.0461304 117.6837112 -28.76242624 129.58287811 -30.47509766 141.48260498 C-31.22536128 146.69360771 -31.97700666 151.90441113 -32.72851562 157.11523438 C-34.18880794 167.24199929 -35.64763985 177.36897394 -37.10546875 187.49609375 C-37.86773773 187.68883377 -38.63000671 187.88157379 -39.41537476 188.08015442 C-42.92528303 188.97053544 -46.4333352 189.86803388 -49.94140625 190.765625 C-51.14015381 191.06859497 -52.33890137 191.37156494 -53.57397461 191.68371582 C-72.4913056 196.54017252 -89.62819903 204.42804599 -107.10351562 213.02978516 C-112.49093282 215.66127732 -117.9244781 218.19540413 -123.35791016 220.73022461 C-126.42474256 222.17216543 -129.28027781 223.61263312 -132.10546875 225.49609375 C-137.21208022 225.3977177 -140.57959647 222.19657522 -144.41796875 219.18359375 C-145.8461693 218.08699877 -147.27456019 216.99065165 -148.703125 215.89453125 C-149.43160645 215.33088867 -150.16008789 214.76724609 -150.91064453 214.18652344 C-154.36591613 211.52531092 -157.86149124 208.91863923 -161.35546875 206.30859375 C-162.69422307 205.3049711 -164.03276917 204.30107063 -165.37109375 203.296875 C-166.00595703 202.82072754 -166.64082031 202.34458008 -167.29492188 201.85400391 C-184.69921875 188.80078125 -184.69921875 188.80078125 -186.62158203 187.35888672 C-187.9531318 186.36030632 -189.28483965 185.36193668 -190.61669922 184.36376953 C-194.44224545 181.49618546 -198.26413676 178.62385931 -202.08203125 175.74609375 C-206.30338962 172.56491983 -210.53802975 169.40198574 -214.77685547 166.24414062 C-216.92333493 164.63281824 -219.04953548 162.99836569 -221.171875 161.35546875 C-228.75571535 155.18028568 -228.75571535 155.18028568 -237.9559021 152.99783325 C-240.62025707 153.61541951 -241.79169845 154.63490799 -243.79931641 156.47998047 C-244.84433319 157.43623322 -244.84433319 157.43623322 -245.91046143 158.4118042 C-249.69354863 162.00406972 -253.42995749 165.63751785 -257.12890625 169.31640625 C-257.95629303 170.13809296 -258.78367981 170.95977966 -259.63613892 171.80636597 C-261.37030018 173.53114198 -263.10305951 175.2573286 -264.83447266 176.98486328 C-267.48674267 179.62734452 -270.14948991 182.25897327 -272.8125 184.890625 C-274.50195847 186.57356008 -276.19078315 188.25713169 -277.87890625 189.94140625 C-278.67469086 190.72484406 -279.47047546 191.50828186 -280.29037476 192.31546021 C-281.02519073 193.05327728 -281.76000671 193.79109436 -282.51708984 194.55126953 C-283.1635849 195.19411896 -283.81007996 195.83696838 -284.47616577 196.4992981 C-287.04782508 199.65100051 -288.14464243 202.33185212 -288.0078125 206.3984375 C-286.90441873 210.18627846 -285.01798153 212.95853009 -282.66796875 216.05859375 C-282.21695801 216.67081787 -281.76594727 217.28304199 -281.30126953 217.91381836 C-279.91592698 219.78497108 -278.51423622 221.64253169 -277.10546875 223.49609375 C-276.33847656 224.50671875 -275.57148438 225.51734375 -274.78125 226.55859375 C-273.1867724 228.63764095 -271.58734659 230.7118647 -269.98046875 232.78125 C-266.45105301 237.33041478 -262.9674913 241.91440566 -259.48046875 246.49609375 C-258.79774902 247.39271729 -258.1150293 248.28934082 -257.41162109 249.21313477 C-256.00836312 251.05607588 -254.60520648 252.89909417 -253.20214844 254.7421875 C-249.83782285 259.16109675 -246.47155213 263.57852345 -243.10546875 267.99609375 C-242.45320312 268.85227295 -241.8009375 269.70845215 -241.12890625 270.59057617 C-237.67152277 275.12881736 -234.21330681 279.66642115 -230.75390625 284.203125 C-230.03847656 285.1415625 -229.32304687 286.08 -228.5859375 287.046875 C-227.22681523 288.82961979 -225.86745732 290.61218497 -224.5078125 292.39453125 C-223.28360622 294.00050664 -222.06303937 295.60926489 -220.84667969 297.22119141 C-219.68080476 298.74441387 -218.49085735 300.24949367 -217.27832031 301.73583984 C-216.71854492 302.43402832 -216.15876953 303.1322168 -215.58203125 303.8515625 C-215.08010254 304.4602417 -214.57817383 305.0689209 -214.06103516 305.69604492 C-213.10546875 307.49609375 -213.10546875 307.49609375 -213.25927734 309.37207031 C-214.34777075 312.10429555 -215.70706423 314.57112093 -217.16796875 317.125 C-218.10974976 318.78728638 -218.10974976 318.78728638 -219.07055664 320.4831543 C-219.4029837 321.06656586 -219.73541077 321.64997742 -220.07791138 322.25106812 C-226.61979927 333.75858135 -232.82037099 345.349641 -238.10546875 357.49609375 C-238.63140625 358.68203125 -239.15734375 359.86796875 -239.69921875 361.08984375 C-243.53879776 370.48455835 -245.87419352 380.21867729 -248.2890625 390.046875 C-248.66076841 391.5484607 -249.03279544 393.04996695 -249.40515137 394.5513916 C-250.30896225 398.19872012 -251.20841971 401.84709657 -252.10546875 405.49609375 C-252.71746408 405.58094182 -253.3294594 405.66578989 -253.96000004 405.75320911 C-268.8685849 407.82085678 -283.77559571 409.89947444 -298.68095493 411.99023151 C-305.88918693 413.00105337 -313.09789761 414.00819028 -320.30786133 415.0065918 C-326.59392369 415.87706544 -332.87896629 416.7545157 -339.16289467 417.64026803 C-342.48853156 418.10878757 -345.81456702 418.57385963 -349.14184761 419.03057289 C-352.86097441 419.54286316 -356.57817106 420.06746588 -360.29516602 420.5949707 C-361.39208771 420.74314743 -362.4890094 420.89132416 -363.61917114 421.04399109 C-373.18381099 422.35282801 -373.18381099 422.35282801 -381.10546875 427.49609375 C-381.42702465 430.33381718 -381.42702465 430.33381718 -381.39599609 433.70239258 C-381.4087558 435.00747269 -381.4215155 436.3125528 -381.43466187 437.65718079 C-381.4377197 439.08916069 -381.43994736 440.52114257 -381.44140625 441.953125 C-381.44783173 443.41802604 -381.4545599 444.88292578 -381.46157837 446.3478241 C-381.47356625 449.42209853 -381.4772578 452.49626048 -381.47607422 455.57055664 C-381.47587127 459.50502532 -381.50314065 463.4387697 -381.53761864 467.3730669 C-381.55989022 470.40060213 -381.56391165 473.42796337 -381.56285477 476.45557213 C-381.56521161 477.90562111 -381.57403996 479.35567482 -381.5895195 480.80564308 C-381.60917487 482.83753752 -381.6008201 484.86964409 -381.59130859 486.90161133 C-381.59415863 488.05695877 -381.59700867 489.21230621 -381.59994507 490.40266418 C-380.99317263 494.19861502 -379.80800609 495.80182383 -377.10546875 498.49609375 C-374.16693032 500.40909856 -371.38585015 500.92292095 -367.94042969 501.42236328 C-366.37713425 501.65409996 -366.37713425 501.65409996 -364.78225708 501.89051819 C-363.64626068 502.05168625 -362.51026428 502.21285431 -361.33984375 502.37890625 C-360.14221405 502.55437485 -358.94458435 502.72984344 -357.71066284 502.91062927 C-354.44026063 503.38826533 -351.16908144 503.85968717 -347.8973465 504.32805252 C-344.48089043 504.81836713 -341.06546767 505.31578155 -337.64990234 505.81225586 C-331.98373105 506.63481577 -326.31681342 507.45206077 -320.64941406 508.26611328 C-314.37342657 509.16773641 -308.09877527 510.07818084 -301.82493591 510.99462509 C-296.01773958 511.84288471 -290.20980135 512.68596094 -284.40148926 513.52655029 C-281.96370658 513.87985977 -279.52612281 514.2345446 -277.08874512 514.59063721 C-273.69135572 515.08612637 -270.29310078 515.57518049 -266.89453125 516.0625 C-265.40166092 516.28213661 -265.40166092 516.28213661 -263.87863159 516.50621033 C-258.89635356 517.21350924 -254.13771197 517.65566116 -249.10546875 517.49609375 C-248.92113281 518.48222656 -248.73679688 519.46835937 -248.546875 520.484375 C-244.10470826 542.85060416 -236.10717592 564.05979432 -226.10546875 584.49609375 C-225.7403418 585.24455566 -225.37521484 585.99301758 -224.99902344 586.76416016 C-222.0883872 592.70234185 -219.10992538 598.60252716 -216.01953125 604.44921875 C-215.68719482 605.08794922 -215.3548584 605.72667969 -215.01245117 606.38476562 C-214.10350951 608.12986037 -213.18112891 609.86793677 -212.2578125 611.60546875 C-210.98526256 614.79762792 -210.96036431 615.39499407 -212.10546875 618.49609375 C-213.54492188 620.6875 -213.54492188 620.6875 -215.38671875 623.05859375 C-216.05912598 623.9314502 -216.7315332 624.80430664 -217.42431641 625.70361328 C-218.14409668 626.62513184 -218.86387695 627.54665039 -219.60546875 628.49609375 C-221.08228676 630.40995911 -222.55885135 632.32402006 -224.03515625 634.23828125 C-224.74510742 635.15448242 -225.45505859 636.07068359 -226.18652344 637.01464844 C-230.94961789 643.17394768 -235.58918399 649.42583244 -240.1953125 655.703125 C-246.42559939 664.19182389 -252.70677876 672.63333457 -259.10546875 680.99609375 C-264.43271261 687.96966921 -269.74050756 694.95660517 -274.98046875 701.99609375 C-275.86412109 703.17075195 -275.86412109 703.17075195 -276.765625 704.36914062 C-280.10356061 708.87654298 -282.55356323 712.73656617 -283.66796875 718.30859375 C-282.31882831 725.95372292 -273.26964751 732.50331488 -267.94140625 737.86328125 C-267.18630768 738.6240799 -266.43120911 739.38487854 -265.65322876 740.16873169 C-264.06968449 741.76165344 -262.48473542 743.35317981 -260.8984375 744.94335938 C-258.47323771 747.378354 -256.05890841 749.82381127 -253.64453125 752.26953125 C-252.09831484 753.82227068 -250.55146203 755.37437671 -249.00390625 756.92578125 C-248.28608978 757.65594452 -247.56827332 758.38610779 -246.82870483 759.13839722 C-246.15095001 759.81315094 -245.47319519 760.48790466 -244.77490234 761.18310547 C-244.1853476 761.77630585 -243.59579285 762.36950623 -242.9883728 762.98068237 C-239.22565311 766.00901949 -235.09380182 767.0912022 -230.26953125 766.95117188 C-225.83543218 766.01873046 -222.57478288 763.01938797 -219.10546875 760.24609375 C-218.27515137 759.60784668 -217.44483398 758.96959961 -216.58935547 758.31201172 C-214.88952224 757.00472266 -213.19529764 755.69010762 -211.50683594 754.36816406 C-208.74413415 752.21440264 -205.94246738 750.11879857 -203.12963867 748.03125 C-196.13351518 742.83654512 -189.2182125 737.5345946 -182.29296875 732.24609375 C-176.18647394 727.58314938 -170.0648881 722.95996282 -163.828125 718.47265625 C-160.26984601 715.88945802 -156.7492142 713.2577806 -153.23046875 710.62109375 C-152.21231079 709.86131226 -152.21231079 709.86131226 -151.17358398 709.08618164 C-147.85027403 706.59697288 -144.56206497 704.07814729 -141.33203125 701.46875 C-140.74405762 700.99872559 -140.15608398 700.52870117 -139.55029297 700.04443359 C-137.95147152 698.76067808 -136.36401891 697.46280042 -134.77734375 696.1640625 C-132.10546875 694.49609375 -132.10546875 694.49609375 -130.32202148 694.68457031 C-127.34864232 695.77318275 -124.72533427 697.25329232 -121.96875 698.8125 C-120.74773408 699.49772632 -119.52662029 700.18277825 -118.30541992 700.86767578 C-117.67042572 701.22589417 -117.03543152 701.58411255 -116.38119507 701.95318604 C-105.16551266 708.26825106 -93.95470329 714.43694152 -82.10546875 719.49609375 C-80.9659375 719.99882813 -79.82640625 720.5015625 -78.65234375 721.01953125 C-69.20332786 724.88503775 -59.43326553 727.2562642 -49.546875 729.68359375 C-48.04585554 730.0550009 -46.54491893 730.42674301 -45.04406738 730.79882812 C-41.39881139 731.70178116 -37.75246446 732.60019445 -34.10546875 733.49609375 C-34.02062068 734.10808908 -33.93577261 734.7200844 -33.84835339 735.35062504 C-31.78070572 750.2592099 -29.70208806 765.16622071 -27.61133099 780.07157993 C-26.60050913 787.27981193 -25.59337222 794.48852261 -24.5949707 801.69848633 C-23.72449706 807.98454869 -22.8470468 814.26959129 -21.96129447 820.55351967 C-21.49277493 823.87915656 -21.02770287 827.20519202 -20.57098961 830.53247261 C-20.05869934 834.25159941 -19.53409662 837.96879606 -19.0065918 841.68579102 C-18.85841507 842.78271271 -18.71023834 843.8796344 -18.55757141 845.00979614 C-17.24873449 854.57443599 -17.24873449 854.57443599 -12.10546875 862.49609375 C-9.26774532 862.81764965 -9.26774532 862.81764965 -5.89916992 862.78662109 C-4.59408981 862.7993808 -3.2890097 862.8121405 -1.94438171 862.82528687 C-0.51240181 862.8283447 0.91958007 862.83057236 2.3515625 862.83203125 C3.81646354 862.83845673 5.28136328 862.8451849 6.7462616 862.85220337 C9.82053603 862.86419125 12.89469798 862.8678828 15.96899414 862.86669922 C19.90346282 862.86649627 23.8372072 862.89376565 27.7715044 862.92824364 C30.79903963 862.95051522 33.82640087 862.95453665 36.85400963 862.95347977 C38.30405861 862.95583661 39.75411232 862.96466496 41.20408058 862.9801445 C43.23597502 862.99979987 45.26808159 862.9914451 47.30004883 862.98193359 C49.03306999 862.98620865 49.03306999 862.98620865 50.80110168 862.99057007 C54.59705252 862.38379763 56.20026133 861.19863109 58.89453125 858.49609375 C60.80365976 855.56200039 61.32054174 852.78648767 61.82080078 849.34692383 C61.9752919 848.30791931 62.12978302 847.26891479 62.28895569 846.19842529 C62.45012375 845.0656012 62.61129181 843.9327771 62.77734375 842.765625 C62.95281235 841.5706842 63.12828094 840.37574341 63.30906677 839.14459229 C63.78680927 835.87967133 64.25824663 832.61396402 64.72649002 829.34767532 C65.11779739 826.62482418 65.51384772 823.90267187 65.90992069 821.18051052 C67.14861492 812.66588251 68.37036953 804.14886692 69.58878326 795.63131714 C69.99131048 792.82022575 70.39534493 790.00935198 70.79941177 787.19848156 C71.84805708 779.90292028 72.89011822 772.6064596 73.92498779 765.30892944 C74.27860832 762.81628401 74.63329747 760.32378993 74.98907471 757.83145142 C75.48404667 754.35698185 75.97337762 750.88176642 76.4609375 747.40625 C76.68057411 745.87281952 76.68057411 745.87281952 76.90464783 744.30841064 C77.54972406 739.66583865 78.07625995 735.19776685 77.89453125 730.49609375 C78.99667969 730.26535156 80.09882812 730.03460937 81.234375 729.796875 C100.55806381 725.68142598 117.90465186 719.73324168 135.89453125 711.49609375 C136.69487793 711.1304834 137.49522461 710.76487305 138.31982422 710.38818359 C149.70745108 705.16095509 161.16199722 699.8191548 172.1015625 693.703125 C175.24322607 692.34539907 175.80100761 692.35208044 178.89453125 693.49609375 C181.0859375 694.93554687 181.0859375 694.93554687 183.45703125 696.77734375 C184.3298877 697.44975098 185.20274414 698.1221582 186.10205078 698.81494141 C187.02356934 699.53472168 187.94508789 700.25450195 188.89453125 700.99609375 C190.80839661 702.47291176 192.72245756 703.94947635 194.63671875 705.42578125 C195.55291992 706.13573242 196.46912109 706.84568359 197.41308594 707.57714844 C203.57238518 712.34024289 209.82426994 716.97980899 216.1015625 721.5859375 C224.59026139 727.81622439 233.03177207 734.09740376 241.39453125 740.49609375 C248.36810671 745.82333761 255.35504267 751.13113256 262.39453125 756.37109375 C263.17763672 756.96019531 263.96074219 757.54929687 264.76757812 758.15625 C269.27498048 761.49418561 273.13500367 763.94418823 278.70703125 765.05859375 C286.35216042 763.70945331 292.90175238 754.66027251 298.26171875 749.33203125 C299.0225174 748.57693268 299.78331604 747.82183411 300.56716919 747.04385376 C302.16009094 745.46030949 303.75161731 743.87536042 305.34179688 742.2890625 C307.7767915 739.86386271 310.22224877 737.44953341 312.66796875 735.03515625 C314.22070818 733.48893984 315.77281421 731.94208703 317.32421875 730.39453125 C318.05438202 729.67671478 318.78454529 728.95889832 319.53683472 728.21932983 C320.21158844 727.54157501 320.88634216 726.86382019 321.58154297 726.16552734 C322.17474335 725.5759726 322.76794373 724.98641785 323.37911987 724.3789978 C326.43675331 720.57987732 327.4530048 716.48550618 327.30957031 711.62011719 C326.49218568 707.43703114 323.8495877 704.4121807 321.26953125 701.12109375 C320.68486084 700.34435303 320.10019043 699.5676123 319.49780273 698.76733398 C317.65108246 696.32659478 315.7770292 693.90931414 313.89453125 691.49609375 C313.3123584 690.74440918 312.73018555 689.99272461 312.13037109 689.21826172 C309.82626709 686.24335088 307.51724309 683.27251468 305.19433594 680.31225586 C300.431679 674.23560417 295.84311108 668.043904 291.28540039 661.81274414 C286.89227916 655.81879661 282.41151995 649.89711949 277.89453125 643.99609375 C272.55035668 636.99890061 267.22060911 629.99169712 261.95703125 622.93359375 C261.35955078 622.14210938 260.76207031 621.350625 260.14648438 620.53515625 C259.60056641 619.79910156 259.05464844 619.06304688 258.4921875 618.3046875 C258.01273682 617.66329834 257.53328613 617.02190918 257.03930664 616.36108398 C255.76658454 614.28765167 255.10255508 612.92850521 254.89453125 610.49609375 C255.89160156 608.20385742 255.89160156 608.20385742 257.47265625 605.6640625 C258.05136475 604.71233154 258.63007324 603.76060059 259.22631836 602.7800293 C259.85932861 601.75820557 260.49233887 600.73638184 261.14453125 599.68359375 C275.47320863 575.82415025 292.89453125 544.24186488 292.89453125 515.49609375 C294.03736572 515.33641113 295.1802002 515.17672852 296.35766602 515.01220703 C298.01708994 514.78027413 299.67651376 514.54834046 301.3359375 514.31640625 C302.25360397 514.18819489 303.17127045 514.05998352 304.116745 513.92788696 C309.42223122 513.18632316 314.72743088 512.44277753 320.03222656 511.69628906 C331.52879144 510.07980827 343.02644805 508.47370471 354.52958965 506.90473747 C360.9967128 506.02253794 367.46284039 505.13326638 373.9284029 504.23970222 C377.93297741 503.68671117 381.93802268 503.13775313 385.94436646 502.59771729 C389.76019922 502.08329218 393.57452503 501.55883955 397.38797951 501.02708054 C398.802756 500.83164279 400.21804621 500.6398833 401.63385582 500.45207596 C403.58699532 500.19244934 405.53818898 499.91830967 407.48925781 499.64355469 C408.58643127 499.49368103 409.68360474 499.34380737 410.81402588 499.18939209 C414.43052023 498.3754641 418.208482 497.182143 420.89453125 494.49609375 C420.98009783 492.40552896 420.99365423 490.31199544 420.97973633 488.21972656 C420.97655396 487.5643692 420.97337158 486.90901184 420.97009277 486.23379517 C420.95745219 484.05551184 420.93657759 481.87742133 420.9140625 479.69921875 C420.90710546 478.95616234 420.90014843 478.21310593 420.89298058 477.44753265 C420.85552553 473.51246072 420.8114873 469.57752202 420.76245117 465.64257812 C420.71317564 461.57947569 420.68693721 457.5165687 420.66602039 453.45323563 C420.64562592 450.32859131 420.60773818 447.20433138 420.56516075 444.07991791 C420.54783585 442.58250813 420.53712919 441.0850064 420.53321266 439.58750153 C420.52611388 437.48764939 420.49415743 435.38953157 420.45629883 433.29003906 C420.43845085 431.49919891 420.43845085 431.49919891 420.42024231 429.67218018 C419.78049711 425.8071558 418.72390203 424.18059801 415.89453125 421.49609375 C404.86249792 416.77720607 390.43938199 416.57156729 378.6484375 414.921875 C376.3047918 414.59023599 373.96120033 414.25821351 371.61766052 413.92582703 C366.73071498 413.23397376 361.84323808 412.54604783 356.95532227 411.86108398 C350.69451057 410.98350606 344.43498621 410.09710687 338.17581272 409.20792866 C333.34728214 408.52278792 328.51818008 407.8417492 323.68888664 407.16200829 C321.37987142 406.83660812 319.07101759 406.51006056 316.76233101 406.18233681 C313.54206389 405.72594781 310.32108583 405.27495838 307.09985352 404.82543945 C306.15067047 404.68989151 305.20148743 404.55434357 304.22354126 404.41468811 C299.74096761 403.79482664 295.43383637 403.33643355 290.89453125 403.49609375 C290.66378906 402.39394531 290.43304687 401.29179687 290.1953125 400.15625 C286.07986348 380.83256119 280.13167918 363.48597314 271.89453125 345.49609375 C271.5289209 344.69574707 271.16331055 343.89540039 270.78662109 343.07080078 C265.55939259 331.68317392 260.2175923 320.22862778 254.1015625 309.2890625 C252.74383657 306.14739893 252.75051794 305.58961739 253.89453125 302.49609375 C255.33398438 300.3046875 255.33398438 300.3046875 257.17578125 297.93359375 C257.84818848 297.0607373 258.5205957 296.18788086 259.21337891 295.28857422 C259.93315918 294.36705566 260.65293945 293.44553711 261.39453125 292.49609375 C262.87134926 290.58222839 264.34791385 288.66816744 265.82421875 286.75390625 C266.53416992 285.83770508 267.24412109 284.92150391 267.97558594 283.97753906 C272.73868039 277.81823982 277.37824649 271.56635506 281.984375 265.2890625 C288.25869217 256.74012548 294.5825209 248.23598029 301.01953125 239.80859375 C302.02270386 238.4935083 302.02270386 238.4935083 303.04614258 237.15185547 C305.5944889 233.81242817 308.14295662 230.47318133 310.70410156 227.14355469 C312.35666673 224.99456678 314.00126966 222.83969911 315.64453125 220.68359375 C316.12164551 220.06846924 316.59875977 219.45334473 317.09033203 218.81958008 C320.86299371 213.84776555 324.17579747 208.63238661 325.58203125 202.49609375 C323.85068042 194.9411083 315.06960106 188.49982853 309.73046875 183.12890625 C308.97537018 182.3681076 308.22027161 181.60730896 307.44229126 180.82345581 C305.85874699 179.23053406 304.27379792 177.63900769 302.6875 176.04882812 C300.26230021 173.6138335 297.84797091 171.16837623 295.43359375 168.72265625 C293.88737734 167.16991682 292.34052453 165.61781079 290.79296875 164.06640625 C290.07515228 163.33624298 289.35733582 162.60607971 288.61776733 161.85379028 C287.94001251 161.17903656 287.26225769 160.50428284 286.56396484 159.80908203 C285.9744101 159.21588165 285.38485535 158.62268127 284.7774353 158.01150513 C281.01471561 154.98316801 276.88286432 153.9009853 272.05859375 154.04101562 C267.62447095 154.97346203 264.36389574 157.97283141 260.89453125 160.74609375 C260.06493896 161.38361572 259.23534668 162.0211377 258.38061523 162.67797852 C256.68146967 163.984476 254.98797986 165.29836273 253.30029297 166.61962891 C249.89208561 169.27798914 246.42447599 171.85337568 242.95703125 174.43359375 C241.6556293 175.41063212 240.35486042 176.38851423 239.0546875 177.3671875 C235.1962389 180.27012186 231.33387847 183.16781282 227.47070312 186.06445312 C224.90203176 187.99046979 222.33382651 189.91710688 219.765625 191.84375 C216.78027118 194.0829111 213.79355542 196.32021957 210.8046875 198.5546875 C200.49567418 206.26569457 190.25315077 214.0626314 180.02246094 221.87719727 C179.32024414 222.41143311 178.61802734 222.94566895 177.89453125 223.49609375 C177.22583008 224.08124756 176.55712891 224.66640137 175.86816406 225.26928711 C173.89453125 226.49609375 173.89453125 226.49609375 172.02807617 226.39086914 C169.14413142 225.18138779 166.48061294 223.71978602 163.7578125 222.1796875 C162.53704425 221.49453629 161.31617445 220.809566 160.09521484 220.12475586 C159.46025085 219.76654755 158.82528687 219.40833923 158.17108154 219.03927612 C146.96489732 212.73063912 135.76934252 206.47189941 123.89453125 201.49609375 C123.19376465 201.19944824 122.49299805 200.90280273 121.77099609 200.59716797 C107.92136813 194.84358607 90.98814412 188.49609375 75.89453125 188.49609375 C75.65500732 186.78184204 75.65500732 186.78184204 75.41064453 185.03295898 C75.17871311 183.37353485 74.94677928 181.71411106 74.71484375 180.0546875 C74.58663239 179.13706635 74.45842102 178.21944519 74.32632446 177.27401733 C73.58462775 171.96777193 72.84106067 166.6617964 72.09472656 161.35620117 C70.47975197 149.86715388 68.87420644 138.37709618 67.30317497 126.88196087 C66.42061004 120.42518345 65.53138983 113.96934294 64.63813972 107.51403522 C64.08551533 103.51729079 63.53665013 99.52010218 62.99615479 95.521698 C62.48115967 91.71242603 61.95674732 87.90456349 61.42551804 84.09752274 C61.23032294 82.68633159 61.0385603 81.27466069 60.85051346 79.86249924 C59.69191736 68.23548267 59.69191736 68.23548267 53.89453125 58.49609375 C51.05657485 58.18150328 51.05657485 58.18150328 47.68823242 58.22143555 C46.38315231 58.21190353 45.0780722 58.20237152 43.73344421 58.19255066 C42.30146254 58.19281213 40.86948085 58.19374941 39.4375 58.1953125 C37.97259906 58.19142622 36.50769925 58.1870917 35.0428009 58.18232727 C31.96851963 58.17485728 28.89435316 58.1751611 25.82006836 58.18041992 C21.88571478 58.1862038 17.95183361 58.16931404 14.0175581 58.14607525 C10.99002852 58.13131839 7.96261204 58.13046904 4.93505287 58.13358498 C3.48501973 58.13307235 2.03498016 58.12784557 0.58498192 58.11777306 C-1.44697078 58.10539499 -3.47901874 58.11415104 -5.51098633 58.1237793 C-6.66633377 58.12314987 -7.82168121 58.12252045 -9.01203918 58.12187195 C-12.48288327 58.54175076 -14.3264045 59.40602266 -17.10546875 61.49609375 Z " fill="#70925E" transform="translate(439.10546875,-0.49609375)"/>
<path d="M0 0 C0.78436432 0.00021149 1.56872864 0.00042297 2.37686157 0.00064087 C16.09612246 0.03736387 29.23930199 1.20193815 42.625 4.375 C43.76775391 4.63990234 43.76775391 4.63990234 44.93359375 4.91015625 C74.12827889 11.93561524 102.70978362 27.89760903 124.11523438 48.90478516 C125.7273596 50.47467812 127.37003629 52.00823001 129.015625 53.54296875 C159.7255379 82.65066229 180.56452401 127.16904932 181.91552734 169.61134338 C181.99351716 173.32463857 182.01105613 177.03597596 182 180.75 C181.99768875 181.93153152 181.99768875 181.93153152 181.99533081 183.13693237 C181.76181652 233.54102443 160.50021364 277.88259314 125.19750977 313.24414062 C117.30915126 320.93622571 108.85633554 327.38780116 99.625 333.375 C98.96516113 333.80490234 98.30532227 334.23480469 97.62548828 334.67773438 C58.32187555 359.96064405 9.50469009 369.06528867 -36.3125 359.56640625 C-43.50367704 357.92558358 -50.45839606 355.95421126 -57.375 353.375 C-58.1582666 353.08608887 -58.9415332 352.79717773 -59.74853516 352.49951172 C-77.49716124 345.87514556 -93.09437871 337.56614343 -108.375 326.375 C-109.29410156 325.70339844 -110.21320313 325.03179688 -111.16015625 324.33984375 C-126.95476456 312.0605733 -140.51155491 297.12475386 -151.375 280.375 C-151.80490234 279.71516113 -152.23480469 279.05532227 -152.67773438 278.37548828 C-158.42491405 269.44119523 -163.22860812 260.15061608 -167.375 250.375 C-167.63909668 249.7557666 -167.90319336 249.1365332 -168.17529297 248.49853516 C-171.55609129 240.42601672 -174.07247762 232.25637734 -176.125 223.75 C-176.32367676 222.92806152 -176.52235352 222.10612305 -176.72705078 221.25927734 C-179.72296247 208.18970887 -180.78660885 195.35922374 -180.75 182 C-180.74912384 181.213974 -180.74824768 180.427948 -180.74734497 179.61810303 C-180.56320413 129.26800876 -159.15263902 84.68495152 -123.80395508 49.43603516 C-117.33768874 43.10099727 -110.64752974 37.53599449 -103.11181641 32.53076172 C-101.41391467 31.4008957 -99.7439079 30.23742818 -98.07421875 29.06640625 C-69.43013161 9.38761785 -34.50099247 -0.08637473 0 0 Z M-87.2265625 94.2265625 C-89.01914869 96.22304474 -90.70040283 98.27826479 -92.375 100.375 C-93.2498962 101.43888745 -94.12490562 102.5026818 -95 103.56640625 C-110.15773027 122.19567021 -119.37669209 143.45035752 -122.375 167.375 C-122.51035156 168.39335937 -122.64570313 169.41171875 -122.78515625 170.4609375 C-124.44250994 186.50107323 -122.44796361 203.10289627 -117.375 218.375 C-116.85292969 219.96248047 -116.85292969 219.96248047 -116.3203125 221.58203125 C-104.23118004 255.38991547 -79.60976912 279.81510798 -47.66601562 295.31494141 C-20.00262827 308.11485913 12.54565627 307.96619387 41.01171875 298.21484375 C57.89798388 291.99989883 72.30853677 283.23052784 85.20654297 270.7421875 C86.55031629 269.4469843 87.91714634 268.17582748 89.28515625 266.90625 C95.79734347 260.70608411 100.78621825 253.88956279 105.625 246.375 C106.18058594 245.54226563 106.73617187 244.70953125 107.30859375 243.8515625 C116.4322057 229.58555109 121.58142017 212.06072399 123.625 195.375 C123.82802734 193.71984375 123.82802734 193.71984375 124.03515625 192.03125 C125.55718173 175.93626791 123.66932071 159.71961195 118.625 144.375 C118.10292969 142.78558594 118.10292969 142.78558594 117.5703125 141.1640625 C112.28548338 126.40298806 104.62953395 113.3837535 94.625 101.375 C94.20017334 100.85301025 93.77534668 100.33102051 93.33764648 99.79321289 C89.77249965 95.43611 85.94276849 91.95709774 81.625 88.375 C80.67109375 87.54871094 79.7171875 86.72242188 78.734375 85.87109375 C30.42008151 45.07644868 -42.72625809 49.72625809 -87.2265625 94.2265625 Z " fill="#70925E" transform="translate(459.375,278.625)"/>
</svg>
