<?xml version="1.0" encoding="UTF-8"?>
<svg version="1.1" xmlns="http://www.w3.org/2000/svg" width="981" height="884">
<path d="M0 0 C0.92683594 0.73605469 1.85367187 1.47210938 2.80859375 2.23046875 C16.10805624 12.88890323 28.03466487 24.89607848 40 37 C43.81783593 35.42983685 46.17443817 33.0266293 49.03515625 30.08984375 C49.51391708 29.60350967 49.99267792 29.1171756 50.48594666 28.61610413 C52.51949209 26.55021504 54.54127265 24.4729727 56.56323242 22.39575195 C63.36124472 15.42837433 70.31791286 9.01149495 78 3 C78.60658447 2.514104 79.21316895 2.02820801 79.83813477 1.52758789 C128.45013145 -37.37576973 189.43957407 -58.20316031 251.5625 -58.25 C252.77829239 -58.25101212 252.77829239 -58.25101212 254.01864624 -58.25204468 C322.93675902 -58.16159098 387.53966097 -32.4847098 439 13 C439.8058252 13.7110791 439.8058252 13.7110791 440.62792969 14.43652344 C452.88789479 25.32861113 463.75737091 37.15798237 473.65429688 50.23046875 C474.9678437 51.95771609 476.30278952 53.66653454 477.640625 55.375 C513.51290402 101.91414613 531.54836221 161.71083592 531.3125 220.0625 C531.30976578 221.47323792 531.30976578 221.47323792 531.30697632 222.91247559 C531.23220488 245.89336652 528.56376208 267.67331525 523 290 C522.78504883 290.87043945 522.57009766 291.74087891 522.34863281 292.63769531 C511.62817572 335.11890868 489.82019793 374.1660287 460.3359375 406.41796875 C458.46175526 408.48959828 456.63125051 410.58555522 454.80705637 412.700634 C451.26768736 416.74724169 447.55935805 420.57937553 443.75116062 424.37188721 C443.05253887 425.0716628 442.35391713 425.77143839 441.63412502 426.4924193 C439.30211025 428.82707233 436.96655841 431.15815351 434.6309967 433.48925781 C432.93769853 435.18299225 431.24462022 436.87694651 429.55174249 438.57110119 C425.87565661 442.24895496 422.19802736 445.92525804 418.51901817 449.6001873 C413.04852442 455.06463133 407.58091571 460.53195532 402.11388435 465.99986311 C392.91616685 475.19889281 383.71612843 484.39559801 374.51475716 493.5909729 C365.40649275 502.69331684 356.29926624 511.79669718 347.1934185 520.90145874 C346.62688385 521.46792466 346.06034919 522.03439057 345.47664682 522.61802212 C342.59941647 525.49491413 339.7222046 528.37182462 336.84499984 531.24874222 C316.47475725 551.61688535 296.10219802 571.98270988 275.72827148 592.34716797 C255.93738253 612.12887006 236.14754607 631.9116241 216.35913086 651.69580078 C215.74898267 652.30581744 215.13883449 652.9158341 214.51019697 653.54433611 C208.38274428 659.67047026 202.25531295 665.79662577 196.12789727 671.92279694 C183.64605249 684.40210563 171.16406515 696.88127172 158.68199158 709.36035156 C158.10810764 709.93409821 157.5342237 710.50784486 156.94294934 711.09897777 C118.63102132 749.40170777 80.31576002 787.70110336 42 826 C39.14129607 824.70127721 37.0796454 823.32957412 34.8630926 821.11264026 C34.2638957 820.51819417 33.6646988 819.92374808 33.04734442 819.31128848 C32.0722159 818.32870769 32.0722159 818.32870769 31.07738781 817.32627678 C30.37757128 816.62906753 29.67775474 815.93185828 28.95673165 815.21352148 C26.59537594 812.85849956 24.24126187 810.49636744 21.88700867 808.13424683 C20.18542831 806.43425364 18.48341036 804.73469836 16.7809909 803.03554547 C13.07144388 799.33108724 9.36503643 795.62351712 5.66134071 791.91320992 C0.15364524 786.39570974 -5.35974944 780.88393124 -10.87431797 775.37330153 C-20.15191392 766.10198702 -29.42477012 756.82594545 -38.69487953 747.54714584 C-47.88054049 738.35287575 -57.0680476 729.16045749 -66.25810814 719.97058487 C-66.82937853 719.39932213 -67.40064892 718.82805938 -67.98923053 718.23948565 C-70.30814198 715.9206151 -72.62706579 713.60175691 -74.94600644 711.28291555 C-96.71336076 689.51646789 -118.47528077 667.74459461 -140.23448872 645.9700036 C-159.56572115 626.62515493 -178.90063591 607.28399477 -198.23901367 587.94628906 C-199.48004446 586.70529868 -200.72107523 585.46430828 -201.96210597 584.22331785 C-202.57564711 583.60979705 -203.18918826 582.99627625 -203.82132156 582.36416392 C-206.90981611 579.27577017 -209.99830555 576.18737131 -213.08678913 573.0989666 C-213.69609999 572.48967246 -214.30541084 571.88037831 -214.93318567 571.25262071 C-231.08852 555.09765168 -247.24140106 538.94023015 -263.39345139 522.78197777 C-263.96816848 522.20704042 -264.54288556 521.63210306 -265.13501831 521.03974337 C-267.44610738 518.72776606 -269.75719637 516.41578866 -272.0682724 514.10379832 C-280.10645568 506.06245633 -288.14546281 498.0219388 -296.1850044 489.98195483 C-306.54933295 479.6170288 -316.91195693 469.25040327 -327.27166692 458.88086085 C-332.74980588 453.3976122 -338.22928772 447.91571391 -343.71074325 442.4357807 C-347.80420217 438.3431439 -351.89503854 434.24789403 -355.98485544 430.15161802 C-357.63943301 428.4952287 -359.29485045 426.83967783 -360.95119015 425.18505059 C-363.20305938 422.93525186 -365.45183059 420.6824003 -367.69986439 418.42877007 C-368.34292657 417.7877632 -368.98598875 417.14675634 -369.64853767 416.48632503 C-373.9624715 412.1527683 -378.02358351 407.64417516 -382 403 C-382.53673927 402.37464741 -383.07347853 401.74929481 -383.62648262 401.10499214 C-414.65968001 364.80027629 -435.58470556 320.59526133 -444.75 273.8125 C-444.94867676 272.80501709 -445.14735352 271.79753418 -445.35205078 270.75952148 C-448.45390257 254.14321777 -449.37876693 237.75393203 -449.3125 220.875 C-449.31034485 219.88421448 -449.3081897 218.89342896 -449.30596924 217.87261963 C-449.25431526 203.05808045 -448.80784255 188.5853958 -446 174 C-445.71793701 172.46279297 -445.71793701 172.46279297 -445.43017578 170.89453125 C-440.63138372 145.33151481 -432.5991092 120.30159728 -421 97 C-420.46922852 95.92202148 -420.46922852 95.92202148 -419.92773438 94.82226562 C-411.72816965 78.31820573 -401.97927336 62.72975046 -390.2421875 48.51416016 C-389.10059794 47.12262351 -387.98637861 45.7087507 -386.875 44.29296875 C-377.0923795 31.93499929 -366.0853584 20.1217108 -354 10 C-353.46036621 9.5373877 -352.92073242 9.07477539 -352.36474609 8.59814453 C-329.62915053 -10.85142276 -303.66273442 -26.62891245 -276 -38 C-275.24074219 -38.31275879 -274.48148438 -38.62551758 -273.69921875 -38.94775391 C-252.63826614 -47.47307475 -230.45821074 -52.80418411 -208 -56 C-207.21657227 -56.11714355 -206.43314453 -56.23428711 -205.62597656 -56.35498047 C-134.48116901 -66.63416799 -55.64355842 -45.5404639 0 0 Z M-300 47 C-300.8765625 47.66515625 -301.753125 48.3303125 -302.65625 49.015625 C-309.44378597 54.29959287 -315.76422834 60.08523088 -322 66 C-322.50321777 66.47453613 -323.00643555 66.94907227 -323.52490234 67.43798828 C-363.63259318 105.50739827 -385.05144306 160.11275887 -387.28125 214.8359375 C-388.57603539 267.38076484 -370.73913803 320.3378122 -336 360 C-335.05797729 361.08051636 -335.05797729 361.08051636 -334.09692383 362.18286133 C-327.52964565 369.59522002 -320.53952055 376.54215345 -313.5 383.5 C-311.15337808 385.82004206 -308.81010217 388.14339137 -306.46875 390.46875 C-305.93342651 390.99577515 -305.39810303 391.52280029 -304.84655762 392.0657959 C-301.11274466 395.77451068 -301.11274466 395.77451068 -300 398 C-299.34 398 -298.68 398 -298 398 C-297.66484391 398.82292353 -297.66484391 398.82292353 -297.32291698 399.66247177 C-295.60161369 402.7039287 -293.29944686 404.96648808 -290.83332825 407.40045166 C-290.301613 407.93317019 -289.76989775 408.46588872 -289.22206992 409.01475024 C-287.43897295 410.79879986 -285.64882619 412.57560266 -283.85864258 414.35253906 C-282.57864462 415.63033571 -281.29909416 416.90858076 -280.0199585 418.1872406 C-277.26348658 420.94077794 -274.50388557 423.69112691 -271.74183083 426.43906403 C-267.37025506 430.78836933 -263.00578195 435.14475528 -258.64225769 439.50213623 C-251.73416437 446.39884236 -244.82141811 453.29086303 -237.90663499 460.18086123 C-225.53920429 472.50402856 -213.17724607 484.83267919 -200.82059592 497.16665626 C-196.48650337 501.49236569 -192.14961786 505.81524937 -187.81043112 510.13584852 C-185.10332861 512.8322601 -182.39829512 515.53074042 -179.6937561 518.22972298 C-178.44463795 519.47538883 -177.19464986 520.72018308 -175.94370079 521.96401024 C-170.40939655 527.46751578 -164.94391371 532.96235363 -159.8721571 538.90143967 C-155.33349813 543.98896661 -150.3968647 548.7226341 -145.56640625 553.53125 C-144.31544019 554.78029381 -143.06470389 556.02956776 -141.81417847 557.27905273 C-139.13380925 559.95627553 -136.45189802 562.6319403 -133.76876831 565.30639648 C-129.52088992 569.5406844 -125.27688917 573.77884478 -121.03344727 578.01757812 C-112.02526282 587.01469045 -103.01285408 596.00756585 -94 605 C-84.26792757 614.71002301 -74.53659438 624.42078001 -64.81014538 634.13643646 C-60.59693327 638.34468444 -56.38129933 642.55048622 -52.16375732 646.75439453 C-49.53528237 649.37537871 -46.90890911 651.99846131 -44.28308487 654.62210083 C-43.07104093 655.83228233 -41.85813769 657.04160394 -40.64428329 658.24996948 C-35.09646865 663.77349861 -29.61040884 669.29429698 -24.5218792 675.251297 C-21.98529378 678.16593999 -19.25379938 680.87748838 -16.51391602 683.59960938 C-15.90817245 684.20549896 -15.30242889 684.81138855 -14.67832947 685.43563843 C-12.70588664 687.40739307 -10.72994234 689.37559703 -8.75390625 691.34375 C-7.3736363 692.72215187 -5.9935892 694.10077691 -4.61375427 695.47961426 C-1.0042193 699.08535473 2.60830999 702.68808033 6.22149658 706.29016113 C9.91707527 709.97545934 13.60977905 713.66363581 17.30273438 717.3515625 C24.53236428 724.57050926 31.76516456 731.78627049 39 739 C43.74844105 735.0343601 48.24221798 730.90271669 52.60903549 726.52239227 C53.2385151 725.89496529 53.86799472 725.26753832 54.51654947 724.6210984 C56.61818936 722.52509787 58.71628159 720.42558282 60.81439209 718.3260498 C62.33856231 716.80446497 63.86294649 715.28309444 65.3875258 713.7619195 C69.57131688 709.58618119 73.7519802 705.40732371 77.93211603 701.22792673 C82.44309507 696.71880125 86.95691954 692.21252564 91.47033691 687.70584106 C101.85107653 677.33938052 112.22759034 666.96869592 122.60348428 656.59738564 C127.73476573 651.46844279 132.86667908 646.34013238 137.99866793 641.21189737 C155.57803258 623.645366 173.15634009 606.0777778 190.73101425 588.50655365 C191.83354259 587.40424694 192.93607101 586.3019403 194.03859951 585.19963375 C195.14373494 584.09471895 196.2488703 582.98980408 197.35400558 581.88488913 C199.57096265 579.6683746 201.78792201 577.45186236 204.00488281 575.23535156 C204.82939268 574.41100578 204.82939268 574.41100578 205.67055931 573.57000656 C223.48723608 555.7569591 241.31004625 537.95006539 259.13656102 520.14686372 C277.99927605 501.30877168 296.85652085 482.46522104 315.70752549 463.61541033 C317.77885613 461.54425113 319.85020876 459.47311393 321.92157745 457.4019928 C322.43157598 456.89205004 322.9415745 456.38210729 323.46702752 455.85671173 C331.65707524 447.6678123 339.85203985 439.48385076 348.04879323 431.30166408 C356.29510728 423.06975107 364.5356689 414.83211858 372.77089998 406.58911735 C377.22816896 402.12794904 381.68779628 397.66920933 386.1540451 393.21702957 C390.24905208 389.13480404 394.33696826 385.04561047 398.4195371 380.95094687 C399.89132685 379.47720747 401.36561425 378.00595688 402.84275123 376.53757709 C438.9106961 340.66982224 462.53655501 294.88627254 468 244 C468.16628906 242.49759766 468.16628906 242.49759766 468.3359375 240.96484375 C473.60691776 184.62233856 456.18486275 127.81960149 420.61865234 83.94580078 C416.73856854 79.28150697 412.64878537 74.83091434 408.42773438 70.47460938 C407.03949414 69.0407908 405.6679068 67.59090719 404.296875 66.140625 C397.91562553 59.53547204 391.0975132 53.81657399 383.76318359 48.32324219 C382.08730314 47.06551966 380.42850494 45.7876937 378.76953125 44.5078125 C335.54606169 11.80009806 277.94308879 -0.97538157 224.6484375 5.75390625 C181.80287077 11.76593131 142.33572218 29.18691805 110 58 C109.33166138 58.58570267 108.66332275 59.17140533 107.97473145 59.77485657 C100.47029941 66.4206497 93.40625211 73.46548994 86.3359375 80.56640625 C85.0500759 81.85413751 83.76398995 83.14164477 82.47769165 84.42893982 C79.1251489 87.78526463 75.77562251 91.14458348 72.42675781 94.50457764 C68.99599 97.94565327 65.5623193 101.38382969 62.12890625 104.82226562 C55.41645851 111.54537447 48.7072001 118.27165621 42 125 C37.84882297 123.36939321 35.09087739 120.34391239 32.02905273 117.22436523 C31.44141647 116.63380844 30.85378021 116.04325165 30.24833679 115.43479919 C28.97371273 114.15257102 27.70140431 112.86803771 26.43115044 111.58148003 C24.41205595 109.53678284 22.38671462 107.49846377 20.3596344 105.46168518 C15.32027474 100.39561951 10.29167676 95.31891509 5.26300049 90.24224854 C1.02107352 85.96059352 -3.22510001 81.68323388 -7.47681999 77.41130257 C-9.45657169 75.41873473 -11.4301163 73.42016274 -13.40345764 71.42124939 C-20.29200459 64.4771281 -27.27028162 58.01385302 -35 52 C-36.09648026 51.10852457 -37.19176925 50.21557909 -38.28515625 49.3203125 C-111.33544205 -8.42126362 -222.00187141 -11.64001231 -300 47 Z " fill="#71925F" transform="translate(450,58)"/>
</svg>
